<svg xmlns="http://www.w3.org/2000/svg" viewBox="0 0 100 100" width="100" height="100">
    <circle cx="50" cy="50" r="48" fill="#000000" stroke="#94A3B8" stroke-width="2"/>
    <circle cx="50" cy="50" r="46" fill="none" stroke="#FFFFFF" stroke-width="1"/>
    <circle cx="50" cy="50" r="32" fill="none" stroke="#FFFFFF" stroke-width="1.5"/>
    <path d="M50,50 L50,18 A32,32 0 0,1 82,50 Z" fill="#FFFFFF"/>
    <path d="M50,50 L82,50 A32,32 0 0,1 50,82 Z" fill="#0066B1"/>
    <path d="M50,50 L50,82 A32,32 0 0,1 18,50 Z" fill="#FFFFFF"/>
    <path d="M50,50 L18,50 A32,32 0 0,1 50,18 Z" fill="#0066B1"/>
    <text x="50" y="15" font-family="Arial, sans-serif" font-weight="900" font-size="10" fill="#FFFFFF" text-anchor="middle">M</text>
    <text x="31" y="19" font-family="Arial, sans-serif" font-weight="900" font-size="10" fill="#FFFFFF" text-anchor="middle">B</text>
    <text x="69" y="19" font-family="Arial, sans-serif" font-weight="900" font-size="10" fill="#FFFFFF" text-anchor="middle">W</text>
  </svg>